<?xml version="1.0" encoding="UTF-8"?>
<svg id="Layer_1" data-name="Layer 1" xmlns="http://www.w3.org/2000/svg" xmlns:xlink="http://www.w3.org/1999/xlink" viewBox="0 0 398.28 400.05">
  <defs>
    <style>
      .cls-1 {
        fill: #e8c93a;
      }

      .cls-2 {
        fill: #b0c84d;
      }

      .cls-3 {
        fill: #edd784;
      }

      .cls-4 {
        fill: #f9f1c5;
      }

      .cls-5 {
        fill: url(#linear-gradient-5);
      }

      .cls-6 {
        fill: url(#linear-gradient-6);
      }

      .cls-7 {
        fill: url(#linear-gradient-4);
      }

      .cls-8 {
        fill: url(#linear-gradient-3);
      }

      .cls-9 {
        fill: url(#linear-gradient-2);
      }

      .cls-10 {
        fill: #c8d564;
      }

      .cls-11 {
        fill: #70a143;
      }

      .cls-12 {
        fill: url(#linear-gradient);
      }

      .cls-13 {
        fill: #5b8e40;
      }

      .cls-14 {
        fill: #815523;
      }

      .cls-15 {
        fill: #92bb44;
      }

      .cls-16 {
        fill: #c49b3b;
      }

      .cls-17 {
        fill: #4e823d;
      }

      .cls-18 {
        fill: #e9e0c2;
      }

      .cls-19 {
        fill: #a2742c;
      }

      .cls-20 {
        fill: #f1f1e6;
      }

      .cls-21 {
        fill: #faeca2;
      }

      .cls-22 {
        fill: #deb655;
      }
    </style>
    <linearGradient id="linear-gradient" x1="227.91" y1="10.2" x2="198.83" y2="216.83" gradientUnits="userSpaceOnUse">
      <stop offset="0" stop-color="#fcf9ec"/>
      <stop offset=".35" stop-color="#f6e7af"/>
      <stop offset=".81" stop-color="#eeddb2"/>
      <stop offset="1" stop-color="#d5ba82"/>
    </linearGradient>
    <linearGradient id="linear-gradient-2" x1="249.55" y1="244.91" x2="309.37" y2="297.26" gradientUnits="userSpaceOnUse">
      <stop offset="0" stop-color="#e6c250"/>
      <stop offset="1" stop-color="#cfa135"/>
    </linearGradient>
    <linearGradient id="linear-gradient-3" x1="148.04" y1="257.51" x2="87.85" y2="297.32" gradientUnits="userSpaceOnUse">
      <stop offset="0" stop-color="#e2ba46"/>
      <stop offset="1" stop-color="#d09f35"/>
    </linearGradient>
    <linearGradient id="linear-gradient-4" x1="320.83" y1="103.6" x2="49.35" y2="181.43" gradientUnits="userSpaceOnUse">
      <stop offset="0" stop-color="#f8e483"/>
      <stop offset=".21" stop-color="#fbf1ba"/>
      <stop offset=".61" stop-color="#f9eba3"/>
      <stop offset="1" stop-color="#f6db5c"/>
    </linearGradient>
    <linearGradient id="linear-gradient-5" x1="252.71" y1="137.66" x2="153.97" y2="218.49" gradientUnits="userSpaceOnUse">
      <stop offset=".23" stop-color="#aac542"/>
      <stop offset="1" stop-color="#639441"/>
    </linearGradient>
    <linearGradient id="linear-gradient-6" x1="258.21" y1="262.08" x2="205.84" y2="312.49" gradientUnits="userSpaceOnUse">
      <stop offset="0" stop-color="#8cb544"/>
      <stop offset="1" stop-color="#51833d"/>
    </linearGradient>
  </defs>
  <g id="Generative_Object" data-name="Generative Object">
    <g>
      <path class="cls-20" d="M91.29,37.6c.23,1.6.95,1.13-.26,2.61-2.06,2.53-13.57,9.83-17.26,13.07C32.43,89.6,8.25,140.1,8.66,195.54c.01,1.43-.52,2.91-.52,4.71v1.05c-.02-.06-.85.21-1.05-.26-.8-1.92,1.79-4.42-3.14-4.45-1.35-.29-.52-2.11-.52-3.66-.1-22.27,4.47-44.17,12.03-64.85,1.67-.62,3.2-2.35,4.18-3.92,4.64-7.39,8.18-17.62,13.07-25.63,15.23-24.92,34.66-44.46,58.57-60.93Z"/>
      <path class="cls-16" d="M26.96,194.49c.14,3.77-.19,8.69,0,12.03l-18.83-6.28c0-1.8.53-3.28.52-4.71h17.52c.59-.42.14-7.05.26-8.37,1.01,2.1.44,5.01.52,7.32Z"/>
      <path class="cls-12" d="M247.14,9.36c25.35,6.14,45.49,16.1,66.42,31.38-2.75.35.77,3.16,1.31,3.66,41.59,38.69,66.53,65.17,76.09,124.73.47,2.95.99,19.06,1.57,19.87.31.44,6.33-.84,3.14,4.97-.06.12-1.24-.26-1.57.26.94.93,1.49-.25,1.57-.26.49-.1,1.07.06,1.57,0-.96,5.34-3.99.5-5.23,8.37-.08.5.06,1.06,0,1.57l-18.83,2.09c-.88-5.05.56-8.8.52-14.12-.42-57.36-38.98-115.33-87.34-143.82-42.03-24.77-89.02-29.71-135.98-16.21-5.34,1.53-8.5,2.72-13.6,4.71-6.2,2.41-11.92,4.69-17.78,7.84-27.83,14.97-52.37,38.74-68.51,65.9-14.82,24.94-21.49,47.95-24.06,76.88-.12,1.32.33,7.95-.26,8.37H8.66c-.41-55.43,23.77-105.93,65.11-142.25,3.69-3.24,15.2-10.55,17.26-13.07,1.21-1.48.5-1.01.26-2.61,4.7-3.23,9.13-6.59,14.12-9.41C148.97,3.48,198.47-2.44,247.14,9.36Z"/>
      <path class="cls-21" d="M235.64,3.08c3.39.58,7.08,1.83,10.46,2.61.31.07.74-.07,1.05,0v3.66C198.47-2.44,148.97,3.48,105.41,28.18l-1.05-3.14C144.84,2.4,189.63-4.8,235.64,3.08Z"/>
      <path class="cls-21" d="M104.37,25.05l1.05,3.14c-4.99,2.83-9.42,6.18-14.12,9.41-23.92,16.47-43.35,36.01-58.57,60.93-4.89,8-8.44,18.24-13.07,25.63-.99,1.58-2.52,3.3-4.18,3.92C31.56,84.05,63.61,47.84,104.37,25.05Z"/>
      <path class="cls-21" d="M384.69,128.07c-1.17,1.07-3.4-2.43-3.66-2.88-22.36-38.31-29.7-56.88-67.46-84.46-20.92-15.28-41.07-25.24-66.42-31.38v-3.66c61.75,14.74,115.91,62.63,137.54,122.38Z"/>
      <path class="cls-20" d="M313.56,40.73c37.77,27.58,45.11,46.15,67.46,84.46.26.45,2.49,3.95,3.66,2.88,4.98,13.75,14.96,52.47,12.55,65.9-.5.06-1.08-.1-1.57,0,3.19-5.81-2.83-4.53-3.14-4.97-.58-.81-1.1-16.92-1.57-19.87-9.57-59.56-34.5-86.04-76.09-124.73-.54-.5-4.06-3.31-1.31-3.66Z"/>
      <path class="cls-19" d="M283.75,51.72c4,2.29,8.25,5.18,12.03,7.84,9.53,6.74,17.9,14.82,26.15,23.01l-8.37,5.75c-13.14-13.74-27.77-24.73-44.98-32.95-.21-.97.3-3.26,0-3.92-.66-1.46-25.68-8.93-29.03-9.68-41.32-9.22-86.9-3.56-123.69,17,.09.19,2.84-.19,3.14-.26l-.52,3.14c-25.3,15.63-46.27,39.45-59.62,65.9-4.49,4.24-12.6,31.2-14.12,38.18-.47,2.14-.65,4.2-1.05,6.28-1.38-.41-1.73-.53-2.61.78-2.96,4.4-3.08,10.86-3.14,15.95-.1,8.54,1.02,17.67,2.09,26.15l-7.84,4.18c-1.5-13.21-1.4-26.58,0-39.75,2.51-23.65,10.75-47.2,23.01-67.46s33.56-42.71,54.39-55.96c13.32-8.47,28.18-15.11,43.41-19.35,43.23-12.02,91.69-7.23,130.75,15.17Z"/>
      <path class="cls-1" d="M55.21,111.86c-12.26,20.26-20.5,43.82-23.01,67.46-1.21-.1-1.52,4.27-1.57,4.97-.27,4.13,2.02,11.87-3.66,10.2-.08-2.31.49-5.22-.52-7.32,2.57-28.93,9.23-51.94,24.06-76.88l4.71,1.57Z"/>
      <path class="cls-21" d="M286.36,48.06l-2.61,3.66c-39.05-22.39-87.52-27.19-130.75-15.17-.22-2.47-2.97-1.22-2.61-4.71,46.96-13.49,93.94-8.55,135.98,16.21Z"/>
      <path class="cls-22" d="M373.7,191.88c-.7,1.88-2.06-.66-2.09-.78-1.93-6.68-2.1-17.31-3.66-24.58-.72-3.38-2.2-10.23-4.71-12.29-7.09-25.98-21.7-51.23-40.27-70.6.05-.13-.02-.34,0-.52.24-2.54-22.36-23.24-27.2-23.53-3.78-2.67-8.03-5.55-12.03-7.84l2.61-3.66c48.36,28.49,86.92,86.46,87.34,143.82Z"/>
      <path class="cls-16" d="M119.53,47.53c-2.86,1.64-10.87,5.1-9.94,8.37-20.83,13.25-41.6,34.82-54.39,55.96l-4.71-1.57c16.14-27.15,40.68-50.92,68.51-65.9l.52,3.14Z"/>
      <path class="cls-3" d="M150.39,31.84c-.36,3.48,2.4,2.24,2.61,4.71-15.23,4.24-30.09,10.88-43.41,19.35-.93-3.26,7.08-6.73,9.94-8.37,3.89-2.23,15.25-6.51,17.52-8.37,1.14-.93,1.21-2.02-.26-2.61,5.1-1.98,8.26-3.17,13.6-4.71Z"/>
      <path class="cls-22" d="M136.79,36.55c1.47.6,1.4,1.69.26,2.61-2.27,1.86-13.63,6.14-17.52,8.37l-.52-3.14c5.87-3.16,11.58-5.43,17.78-7.84Z"/>
      <path class="cls-18" d="M395.67,193.97c-.08.02-.63,1.19-1.57.26.32-.52,1.5-.15,1.57-.26Z"/>
      <path class="cls-19" d="M363.24,154.22c2.54,9.31,5.07,21.81,5.75,31.38-1.93,2.14-1.24-6.32-1.57-7.06-.27-.59-3.73-2.65-4.71-4.18-4.81-7.55-7.34-25.04-11.51-34.52-1.5-3.41-4.9-6.98-5.75-10.98l-2.09,1.31c-2.18-4.55-5.22-8.79-7.84-13.07-5.58-9.1-11.65-17.68-18.83-25.63-.06-3.23,5.43-5.42,6.28-7.84,18.57,19.37,33.18,44.62,40.27,70.6Z"/>
      <path class="cls-3" d="M343.37,130.16c7.1,14.79,13.75,36.23,15.17,52.56.17,1.95.89,13.89.52,14.64-.28.57-2.42.72-2.61,1.05-.72,1.21-1.1,14.44-1.57,17.26-2.33,14.03-6.41,31.66-12.55,44.45-.34.71-1.32,3.45-2.61,2.35,10.55-23.1,16.22-48.2,14.12-73.74-1.23-14.91-4.68-29.23-9.94-42.88,1.94.09.83-2.03.52-2.88-2.2-6.14-9.2-16.57-9.94-22.23-.21-1.59-.27-2.82,1.05-3.66,2.63,4.29,5.66,8.53,7.84,13.07Z"/>
      <path class="cls-16" d="M268.58,55.38c-30.78-14.7-63.57-19-97.27-13.07-14.53,2.55-25.64,7.66-39.22,12.03-2.68.86-4.21-.07-4.45,0-2.45.73-6.45,3.65-8.63,4.18-.3.07-3.05.45-3.14.26,36.79-20.56,82.37-26.22,123.69-17,3.35.75,28.37,8.21,29.03,9.68.3.66-.21,2.96,0,3.92Z"/>
      <path class="cls-16" d="M43.7,172c-.53,2.8-1.61,15.8-2.09,16.47-.42.59-2.81.11-3.66.26.06-5.09.17-11.56,3.14-15.95.88-1.31,1.23-1.19,2.61-.78Z"/>
      <path class="cls-4" d="M322.97,83.1c-.24-.06-.98-.46-1.05-.52-8.25-8.19-16.62-16.27-26.15-23.01,4.83.3,27.43,20.99,27.2,23.53Z"/>
      <path class="cls-16" d="M132.08,54.33c-4.26,2.83-9.27,4.64-13.6,7.32l.52-3.14c2.18-.53,6.18-3.45,8.63-4.18.24-.07,1.76.86,4.45,0Z"/>
      <path class="cls-16" d="M321.93,82.57c.07.07.81.47,1.05.52-.02.18.05.39,0,.52-.85,2.43-6.33,4.62-6.28,7.84-.9-.99-2.14-2.09-3.14-3.14l8.37-5.75Z"/>
      <g>
        <path class="cls-16" d="M3.43,192.92c0,1.55-.82,3.37.52,3.66.11,10.35,1.92,20.42,3.66,30.59.19,1.12-.74,4.18-.52,5.23.05.23,1.43.41,1.57,1.05,1.6,7.38,3.17,14.49,5.75,21.97,1.16.1,1.61-1.12,1.57-2.09-.11-2.77-3.97-12.01-4.71-15.69-1.35-6.73-3.09-15.77-3.66-22.49-.12-1.46-.75-10.13-.52-10.98.33-1.26,2.35,1.26,1.05-2.88v-1.05l18.83,6.28c.43,7.46,1.77,16.66,3.14,24.06,2.08,11.23,5.26,20.35,9.41,30.86s7.38,16.8,13.07,26.15c7.45,12.24,15.98,23.86,26.15,33.99l-14.64,13.86c41.11,42.01,103.31,63.33,161.86,55.17-.38,5.8,7.07-.3,10.2,2.09-11.44,2.07-22.35,3.09-33.99,3.14-42.56.17-85.02-13.74-119.24-38.7-17.42-12.7-33.33-28.69-45.5-46.55-8.41-12.33-14.84-25.87-20.92-39.49l-2.09,1.31C-.43,235.17-3.61,197.78,3.95,158.41c1.08,1.01,1.62,2.44,1.57,3.92-.26,7.45-2.67,17.07-3.14,25.1-.06,1.09-.69,5.31,1.05,5.49Z"/>
        <path class="cls-16" d="M392.01,203.91c-.84,7.1-.58,15.31-1.57,22.75-.66,4.94-3.26,12.08-4.18,17.78-.37,2.31,1.68,2.52,1.57,3.66-.4,4.16-8.26,23.02-7.84,24.58l1.05.52c6.65-15.16,11.65-31.37,14.12-47.85,3.2,2.61.92-.6,3.14-1.05-4.51,33.98-18.95,66.82-39.22,94.14l-1.83-2.09c-10.35,13.76-22.45,25.86-35.82,36.61l-1.31-3.14c-1.78.92-13.99,12.14-14.91,8.63l16.21-12.55-10.46-14.91c19.87-16.81,37.23-39.89,47.59-63.8,3.87-8.93,7.16-18.23,9.41-27.72,2.62-11.02,3.84-22.25,5.23-33.47l18.83-2.09Z"/>
        <path class="cls-14" d="M202.16,395.84l7.06,1.57c-5.34,2.33-22.61-1.85-26.15-.52-1.23.46-.16,1.33-.26,2.09-16.89-1.66-30.84-7.04-46.55-9.41l-10.2-4.71c-.79,0-1.57,0-2.35,0-8.32-5.02-17.54-8.6-25.89-13.6-5.43-3.25-10.37-7.23-15.43-10.98l.52-3.14c34.22,24.96,76.68,38.87,119.24,38.7Z"/>
        <path class="cls-21" d="M310.95,330.99l10.46,14.91-16.21,12.55c.92,3.51,13.12-7.7,14.91-8.63l1.31,3.14c-23.59,18.94-51.71,33.18-81.59,39.22-1.11.22-2.46.31-3.66.52-3.13-2.4-10.58,3.71-10.2-2.09-58.56,8.15-120.76-13.16-161.86-55.17l14.64-13.86c63.65,63.38,163.63,67.43,232.2,9.41Z"/>
        <path class="cls-20" d="M358.54,267.19c-10.37,23.91-27.72,46.99-47.59,63.8-68.58,58.01-168.55,53.96-232.2-9.41-10.17-10.13-18.69-21.75-26.15-33.99l2.61-2.09c3.94,6.57,8.82,12.83,13.6,18.83,29.55,37.11,72.48,60.8,120.29,63.8,20.36,1.28,39.61-1.02,59.1-6.8,30.49-9.04,57.62-27.46,78.45-51.25,10.63-12.14,20.49-26.61,27.2-41.32,4.01,1.24,1.88.27,4.71-1.57Z"/>
        <path class="cls-14" d="M250.28,393.23c-15.24,3.52-30.85,6.1-46.55,6.8-5.19.23-10.75-.98-16.21-.52-1.56-.71-3.11-.37-4.71-.52.1-.76-.97-1.63.26-2.09,3.54-1.33,20.81,2.86,26.15.52l-7.06-1.57c11.65-.05,22.56-1.07,33.99-3.14,1.2-.22,2.55-.3,3.66-.52-1.05,1.43.42,1.14,1.31,1.05,2.56-.26,9.26-3.63,9.15,0Z"/>
        <path class="cls-22" d="M32.19,179.33c-1.4,13.17-1.5,26.54,0,39.75.55,4.89,1.49,9.85,2.61,14.64-.03-.07-.8.22-1.05-.26-.96-1.9.87-4.64-3.66-2.88-1.37-7.39-2.71-16.59-3.14-24.06-.19-3.34.14-8.25,0-12.03,5.68,1.67,3.39-6.07,3.66-10.2.05-.7.36-5.07,1.57-4.97Z"/>
        <path class="cls-16" d="M8.14,201.29c1.3,4.13-.71,1.62-1.05,2.88-.22.85.4,9.52.52,10.98.57,6.72,2.31,15.76,3.66,22.49.74,3.68,4.59,12.91,4.71,15.69.04.98-.41,2.19-1.57,2.09-2.58-7.47-4.15-14.58-5.75-21.97-.14-.64-1.52-.81-1.57-1.05-.21-1.05.71-4.11.52-5.23-1.74-10.18-3.55-20.25-3.66-30.59,4.92.02,2.34,2.52,3.14,4.45.19.47,1.03.2,1.05.26Z"/>
        <path class="cls-3" d="M34.81,233.72c3.58,8.58,5.24,19.92,9.41,29.81l-2.88-4.18-1.83,2.09c-4.16-10.51-7.33-19.63-9.41-30.86,4.53-1.76,2.7.97,3.66,2.88.24.48,1.02.19,1.05.26Z"/>
        <path class="cls-21" d="M44.22,263.53c3.04,7.21,6.97,15.27,10.98,21.97l-2.61,2.09c-5.69-9.35-9.05-15.99-13.07-26.15l1.83-2.09,2.88,4.18Z"/>
        <path class="cls-16" d="M395.15,225.35c-2.47,16.48-7.47,32.7-14.12,47.85l-1.05-.52c-.41-1.56,7.45-20.42,7.84-24.58.11-1.14-1.94-1.35-1.57-3.66.92-5.7,3.53-12.84,4.18-17.78.99-7.44.73-15.65,1.57-22.75.06-.51-.08-1.07,0-1.57,2.57,4.08,3.94-6.13,5.23-2.88.99,2.5-1.49,21.87-2.09,25.89Z"/>
        <path class="cls-3" d="M373.7,191.88c.04,5.32-1.4,9.07-.52,14.12-1.39,11.22-2.61,22.45-5.23,33.47-1.84,1.29-2.01.6-4.18.52,4.34-17.43,6.52-36.37,5.23-54.39-.68-9.57-3.21-22.07-5.75-31.38,2.51,2.06,3.98,8.91,4.71,12.29,1.56,7.27,1.73,17.9,3.66,24.58.04.13,1.39,2.66,2.09.78Z"/>
        <path class="cls-21" d="M367.95,239.47c-2.25,9.48-5.54,18.79-9.41,27.72-2.82,1.84-.7,2.81-4.71,1.57,4.09-8.96,7.56-19.21,9.94-28.76,2.18.07,2.34.76,4.18-.52Z"/>
        <path class="cls-16" d="M369,185.6c1.29,18.02-.89,36.96-5.23,54.39-2.38,9.56-5.85,19.8-9.94,28.76-6.71,14.7-16.57,29.18-27.2,41.32l-5.23-6.54,17.78-24.58-5.75-3.4c2.26-3.94,4.37-8.9,6.28-13.07,1.29,1.1,2.27-1.64,2.61-2.35,6.14-12.8,10.22-30.43,12.55-44.45.47-2.81.85-16.05,1.57-17.26.2-.33,2.34-.48,2.61-1.05.37-.76-.35-12.69-.52-14.64-1.42-16.33-8.06-37.77-15.17-52.56l2.09-1.31c.85,4,4.25,7.57,5.75,10.98,4.17,9.48,6.7,26.96,11.51,34.52.97,1.53,4.44,3.59,4.71,4.18.33.74-.36,9.2,1.57,7.06Z"/>
        <path class="cls-22" d="M188.57,360.28c3.48.23,7.55.55,10.98.52.28,10.31-3.05,5.43-10.46,7.32-47.81-3-90.74-26.7-120.29-63.8l4.18-6.8c27.58,36.15,69.92,59.79,115.58,62.76Z"/>
        <path class="cls-22" d="M326.63,310.07c-20.83,23.79-47.96,42.21-78.45,51.25l-1.57-7.84c1.47-.43,2.79-1.12,4.18-1.57,6.6-2.13,11-3.84,17.26-6.8,4.29-2.03,31.19-16.25,30.33-20.13l-4.18-3.92c14.88-11.77,29.8-29.04,39.22-45.5l5.75,3.4-17.78,24.58,5.23,6.54Z"/>
        <path class="cls-16" d="M40.04,214.89c.58,4.55,1.22,7.63,2.09,12.03,5.25,26.45,14.47,49.13,30.86,70.6l-4.18,6.8c-4.77-5.99-9.65-12.25-13.6-18.83s-7.94-14.76-10.98-21.97c-4.17-9.89-5.83-21.23-9.41-29.81-1.12-4.79-2.06-9.75-2.61-14.64l7.84-4.18Z"/>
        <path class="cls-21" d="M246.62,353.48l1.57,7.84c-19.49,5.78-38.74,8.08-59.1,6.8,7.41-1.89,10.74,2.99,10.46-7.32,15.71-.11,32.05-2.97,47.07-7.32Z"/>
        <path class="cls-9" d="M339.71,262.48c-1.91,4.18-4.02,9.13-6.28,13.07-9.42,16.46-24.35,33.73-39.22,45.5-8.71,6.9-20.77,14.72-30.86,19.35-4.77,2.19-10.17,4.1-15.17,5.75-13.55,4.47-27.61,7.16-41.84,8.37.34-5.19-1.34-12.06-1.05-17.78,28.4-6.05,55.35-31.16,69.03-56.22s16.52-50.93,10.98-79.23c-.17-.89-2.2-7.11-1.83-7.32l69.03,4.71,1.31-9.94c2.1,25.54-3.57,50.64-14.12,73.74Z"/>
        <path class="cls-21" d="M59.39,261.43c23.57,52.6,75.83,91.06,134.41,92.57.33,4.38,1.9,4.58,5.75,4.71l-10.98,1.57c-45.66-2.96-88-26.61-115.58-62.76-16.38-21.47-25.61-44.16-30.86-70.6,1.15-.8,1.2-.3,1.57.78,3.3,9.66,4.6,21.72,9.94,30.86,1.93,3.31,1.28,4.08,5.75,2.88Z"/>
        <path class="cls-20" d="M248.19,346.16l2.61,5.75c-1.39.45-2.71,1.14-4.18,1.57-15.02,4.35-31.36,7.21-47.07,7.32-3.43.02-7.5-.3-10.98-.52l10.98-1.57c3.77.12,6.54-.12,6.8-4.18,14.23-1.2,28.29-3.9,41.84-8.37Z"/>
        <path class="cls-21" d="M268.06,345.11l-4.71-4.71c10.08-4.63,22.14-12.45,30.86-19.35l4.18,3.92c.86,3.89-26.05,18.11-30.33,20.13Z"/>
        <path class="cls-18" d="M263.35,340.4l4.71,4.71c-6.26,2.96-10.66,4.67-17.26,6.8l-2.61-5.75c4.99-1.65,10.4-3.56,15.17-5.75Z"/>
        <path class="cls-22" d="M53.64,156.31c-3.98,13.43-6.42,27.75-5.23,41.84-1.04.25-2.34-.53-3.14.78-.1,22,5.22,42.65,14.12,62.5-4.47,1.21-3.82.43-5.75-2.88-5.34-9.13-6.64-21.19-9.94-30.86-.37-1.09-.42-1.58-1.57-.78-.87-4.4-1.52-7.48-2.09-12.03-1.07-8.48-2.19-17.61-2.09-26.15.85-.15,3.24.33,3.66-.26.48-.68,1.56-13.68,2.09-16.47.4-2.08.58-4.13,1.05-6.28,4.48-3.67.13-13.33,8.89-9.41Z"/>
        <path class="cls-8" d="M116.4,193.97c-6.69,24.62-7.42,41.47.52,65.9,11.55,35.49,41.16,66.21,77.4,76.36.69,5.74-.91,12.6-.52,17.78-58.58-1.51-110.83-39.97-134.41-92.57-8.9-19.85-14.22-40.49-14.12-62.5.8-1.32,2.1-.54,3.14-.78,10.21-2.45,32.21-2.92,43.67-3.66,7.99-.52,16.32-.87,24.32-.52Z"/>
      </g>
      <g>
        <g>
          <path class="cls-21" d="M171.31,42.3c1.28,1.51-.48,1.86-1.31,2.09-45.01,12.84-85.38,39.52-105.9,83.15-3.54.32-2.45-2.63-5.23,0,13.35-26.45,34.32-50.26,59.62-65.9,4.33-2.68,9.33-4.49,13.6-7.32,13.59-4.37,24.69-9.48,39.22-12.03Z"/>
          <path class="cls-3" d="M64.1,127.55c-.6,1.28-2.98,5.09-3.14,6.01-.07.41,1.7.13,1.57.52-2.37,7.27-6.52,14.23-8.89,22.23-8.76-3.91-4.41,5.75-8.89,9.41,1.52-6.97,9.63-33.94,14.12-38.18,2.78-2.63,1.69.32,5.23,0Z"/>
          <path class="cls-18" d="M188.57,73.68c-24.59,34.09-44.62,62.26-62.24,100.94-1.13,2.47-4.12,11.44-4.71,12.29-1.01,1.48-1.84.79-2.61-.26,11.68-36.21,37.67-76.5,61.19-106.43,1.79-2.28,5.89-8.86,8.37-6.54Z"/>
          <g>
            <path class="cls-7" d="M268.58,55.38c17.21,8.22,31.83,19.2,44.98,32.95,1,1.04,2.24,2.15,3.14,3.14,7.18,7.94,13.25,16.53,18.83,25.63-1.31.84-1.25,2.07-1.05,3.66-.72-1.34-2.36-2.18-3.14-3.4-1.33-2.09-3.4-8.3-4.71-9.94-.54-.68-7.17-6.91-6.8-3.66.13,1.14,11.26,15.69,13.07,18.83,4.34,7.52,7.86,15.17,10.98,23.27,5.26,13.66,8.71,27.98,9.94,42.88l-1.31,9.94-69.03-4.71c-.37.21,1.66,6.43,1.83,7.32l-2.61-.78c-2.45-10.18-6.12-22.16-10.98-31.38-.44-.84-.88-2.27-2.09-1.31-2.09-5.55-6.52-13.67-9.41-19.09-17.21-32.2-41.16-61.17-60.4-91.78-.79.46-.8,1.48-1.31,2.09-3.4,4.14-6.65,10.08-9.94,14.64-2.47-2.32-6.58,4.26-8.37,6.54-23.52,29.92-49.51,70.21-61.19,106.43-.77,2.38-1.95,4.86-2.61,7.32-7.99-.34-16.33,0-24.32.52-11.45.74-33.46,1.21-43.67,3.66-1.19-14.08,1.25-28.41,5.23-41.84,2.37-7.99,6.52-14.96,8.89-22.23.13-.39-1.64-.12-1.57-.52.16-.93,2.54-4.74,3.14-6.01,20.52-43.64,60.9-70.32,105.9-83.15.82-.24,2.58-.58,1.31-2.09,33.71-5.92,66.5-1.62,97.27,13.07Z"/>
            <path class="cls-21" d="M334.48,120.75c.74,5.66,7.74,16.09,9.94,22.23.3.84,1.42,2.96-.52,2.88-3.12-8.1-6.64-15.75-10.98-23.27-1.81-3.14-12.94-17.69-13.07-18.83-.38-3.25,6.25,2.98,6.8,3.66,1.31,1.64,3.37,7.85,4.71,9.94.78,1.22,2.42,2.06,3.14,3.4Z"/>
            <path class="cls-3" d="M190.92,40.73c.62.24-.39,2.04-.52,2.09-2.5,1.04-13.94.52-17.52,1.31l18.04-3.4Z"/>
          </g>
        </g>
        <g>
          <path class="cls-21" d="M285.32,201.29c5.54,28.3,2.89,53.82-10.98,79.23s-40.63,50.17-69.03,56.22c.03-.5-1.43-1.57.26-2.61,28.79-7.28,52.63-31.2,66.16-57.01,17.85-34.06,15.62-70.16-.52-104.6-.47-1.65-.97-3.12-1.57-4.71,1.21-.96,1.65.47,2.09,1.31,4.86,9.22,8.54,21.2,10.98,31.38l2.61.78Z"/>
          <path class="cls-21" d="M120.58,192.92c-5.89,21.57-8.58,42.35-.52,63.8l1.05,6.28c-.93-1.61-1.38-3.17-2.35-4.71l-1.83,1.57c-7.95-24.42-7.21-41.28-.52-65.9.67-2.46,1.85-4.94,2.61-7.32.77,1.06,1.6,1.74,2.61.26.58-.85,3.58-9.82,4.71-12.29-1.97,6.1-4.06,12.11-5.75,18.3Z"/>
          <path class="cls-11" d="M153.53,239.47c8.39,10.76,20.31,20.43,29.81,30.33.47,5.89-4.67,10.35-6.54,15.69l-27.46-23.01c-5.33-5.63-11.23-11.71-15.69-18.04-3.05-4.33-5.62-11.29-8.37-15.17-.33-.46-1.27-1.27-1.57-.52,6.94,14.72,17.62,27.56,28.76,39.49l-2.35-1.57c-.37.21-.35.95-.26,1.31.74,2.83,21.07,19.3,24.06,23.01.17.97-8.1,13.52-10.46,13.86-14.91-12.57-25.58-28.12-34.26-45.5,5.39,16.75,16.96,31.27,29.03,43.93-3.35-2.47-6.92-7.83-9.94-2.61-12.38-12.51-22.01-27.33-28.24-43.93-8.06-21.46-5.36-42.24.52-63.8,1.5,1.51-1.05,3.89-.52,5.49.13.41,5.16,6.26,5.49,6.54,1.21,1.01,6.31,2.67,6.54,3.4.12.4-.33,6.41,0,8.37,2.19,13.02,4.32,26.74,21.44,22.75Z"/>
          <path class="cls-17" d="M152.48,268.23l44.45,38.7c-.49,6.17-.88,12.37-1.05,18.57-.3.56-6.64-3.03-7.32-3.4-8.89-4.87-17.36-10.73-25.1-17.26,2.36-.34,10.63-12.89,10.46-13.86-2.99-3.71-23.32-20.19-24.06-23.01-.09-.35-.11-1.1.26-1.31l2.35,1.57Z"/>
          <path class="cls-2" d="M160.85,145.33c4.14,6.25,9.04,12.02,14.12,17.52-3.9.58,1.64,4.29,2.61,5.49.74.91,5.23,6.12,5.23,6.54-4.71,4.51-9.31,4.64-15.17,6.54-2.86-2.94-5.92-5.78-8.63-8.89-1.39.52,6.44,8.99,7.06,9.68,9.76,10.81,21.18,20.21,30.86,31.12,0,.63.54,2.24.52,3.66-.68-.05-.89-1-1.57-1.05-9.41-13.13-22.45-23.08-32.95-35.3-4.41-5.13-12.05-14.12-14.64-20.13.4.46,2.7,3.12,3.14,2.88,2.41-4.69,3.24-10.63,5.75-15.17.47-.84,2.12-3.85,3.66-2.88Z"/>
          <path class="cls-2" d="M171.31,127.03c.75,1.3,1.74,2.45,2.61,3.66-.17,5.07,14.13,19.08,13.6,21.7-.23,1.12-7.18,9.84-8.11,11.77l-4.97-3.66c-5.87-6.62-11.25-13.48-16.74-20.4-.03-.08-1.74-.65-.78-1.57l14.38-11.51Z"/>
          <path class="cls-11" d="M181.77,236.33c1.15,1.23,3.91,3.19,5.23,4.71s7.52,7.85,7.84,9.15c.21.83.08,7.88-.26,8.11-.09.06-1.09-1.07-2.09-.52-1.48.81-5.77,5.18-6.8,5.23-.88.04-12.19-9.57-13.86-10.98-6.77-5.72-13.34-11.84-18.83-18.83,4.86,4.88,10.67,9.09,15.43,14.12,3.13-4.59,11.08-5.3,13.34-10.98Z"/>
          <path class="cls-18" d="M121.1,263c5.14,8.87,8.73,18.43,14.64,26.93,14.13,20.31,35.37,36.25,58.84,44.19.86.96-.31,1.7-.26,2.09-36.24-10.15-65.85-40.87-77.4-76.36l1.83-1.57c.98,1.54,1.42,3.1,2.35,4.71Z"/>
          <path class="cls-17" d="M158.23,303.27c10.42,7.68,18.3,13.02,29.29,19.87,1.4.87,8.18,4.52,8.37,4.97.26.63-.32,3.24-1.31,3.4-1.15.19-18.65-9.1-20.92-10.46-9.33-5.58-17.76-12.71-25.36-20.4,3.02-5.21,6.58.14,9.94,2.61Z"/>
          <path class="cls-17" d="M202.69,313.21c.09-1.82-.24-4.05,0-5.75,22.24-19.44,45.26-36.47,62.76-60.67.64,2.11-2.79,6.74-4.18,8.63-14.33,19.41-34.89,34.8-52.56,50.99l-6.01,6.8Z"/>
          <path class="cls-17" d="M189.09,238.95c2.61,2.78,5.14,5.67,7.84,8.37.07,6.51-.09,13.08,0,19.61,0,.51,1.57.88,1.57,1.05.07,5.02-.57,9.94-.52,14.91-1.78.26-.84-2.27-1.05-3.66-.56-3.74-1.27-4.2-3.66-7.06-5.82-6.96-15.42-13.08-21.44-20.13,1.67,1.41,12.98,11.03,13.86,10.98,1.03-.05,5.32-4.42,6.8-5.23,1-.55,2,.58,2.09.52.34-.22.47-7.28.26-8.11-.32-1.3-6.46-7.56-7.84-9.15l2.09-2.09Z"/>
          <path class="cls-13" d="M152.48,235.81c13.73,15.47,30.74,27.89,44.45,43.41.21,1.39-.73,3.92,1.05,3.66.07,7.73-.56,15.67-1.05,22.49-1.09-1.88-2.63-3.75-4.18-5.23.53-.84,3.54-.54,3.66-.78.36-.73-.12-15.05-.52-16.21-.62-1.79-10.49-11.18-12.55-13.34-9.5-9.9-21.42-19.57-29.81-30.33-.74-.94-3.63-3.46-1.05-3.66Z"/>
          <path class="cls-11" d="M195.89,215.93c.68.04.89,1,1.57,1.05-.08,8.74-1.17,17.92-1.05,26.67-6.47-6.57-12.78-13.4-19.35-19.87l9.15,8.37c2.11-4.51,1.35-10.67,4.45-14.91,2.48-3.39,2.07-.77,2.88-.78,1.12-.02,1.52-.58,2.35-.52Z"/>
          <path class="cls-11" d="M271.72,277.12c1.77-5.64,5.06-10.77,6.8-16.47.17-.57,1.06-2.71-.52-2.35,2.14-6.39,2.16-11.01,3.14-16.47.27-1.5,1.55-.9,1.57-1.05.55-3.48.18-8.41.52-12.03l-1.05,3.14c-.1-4.61.23-9.58-.52-14.12-.36-2.14-2.32-6.01-2.61-7.58-1.85-9.72-4.07-18.2-6.8-28.5-.5-1.9-.09-5.76-1.05-9.15,16.14,34.44,18.37,70.54.52,104.6Z"/>
          <path class="cls-11" d="M204.78,252.54h-2.61c.07-1.26-.28-4.13,0-4.97.17-.51.95.16,1.57-.78,9.31-14.06,32.42-30.95,44.45-45.5.58,2.78-3.82,7.34-5.75,9.68-6.24,7.52-36.78,35.84-37.65,41.58Z"/>
          <path class="cls-2" d="M149.34,262.48c13.83,14.62,29.4,24.37,43.41,37.65,1.56,1.48,3.1,3.35,4.18,5.23-.04.52.04,1.05,0,1.57l-44.45-38.7c-11.14-11.92-21.83-24.76-28.76-39.49.29-.75,1.24.06,1.57.52,2.74,3.88,5.32,10.84,8.37,15.17,4.46,6.33,10.36,12.41,15.69,18.04Z"/>
          <path class="cls-2" d="M271.72,236.85c-1.54,3.63-3.99,6.78-6.28,9.94-17.49,24.2-40.52,41.22-62.76,60.67.16-1.14,0-1.37.52-2.61,2.52-6.06,26.71-20.34,31.38-27.2,5.2-1.26,29.35-30.27,33.47-36.09,1.06-1.5,2.78-3.33,3.66-4.71Z"/>
          <path class="cls-2" d="M153,233.19c5.49,6.99,12.06,13.11,18.83,18.83,6.02,7.05,15.62,13.18,21.44,20.13,2.39,2.86,3.11,3.32,3.66,7.06-13.71-15.52-30.72-27.94-44.45-43.41-5.72-6.45-14.79-17.46-18.3-25.1,6.29,6.06,11.88,15.52,18.83,22.49Z"/>
          <path class="cls-2" d="M163.46,304.84c7.74,6.53,16.21,12.38,25.1,17.26l-1.05,1.05c-10.99-6.86-18.87-12.2-29.29-19.87-12.06-12.66-23.64-27.18-29.03-43.93,8.67,17.38,19.34,32.93,34.26,45.5Z"/>
          <path class="cls-15" d="M156.66,206.52c4.49,2.49,27.32,26.99,32.42,32.42l-2.09,2.09c-1.32-1.52-4.08-3.48-5.23-4.71-9.2-9.87-18.9-19.51-27.2-30.07.91-1.29,1.16-.26,2.09.26Z"/>
          <path class="cls-11" d="M167.65,181.42c7.7,7.91,15.39,15.8,23.27,23.53.42-.7,5.86-5.7,6.54-4.45.54,4.24-.51,8.68-.52,12.81-9.68-10.9-21.1-20.31-30.86-31.12-.62-.69-8.45-9.15-7.06-9.68,2.71,3.11,5.77,5.95,8.63,8.89Z"/>
          <path class="cls-11" d="M200.6,61.13c1.28,3.4.96,9.16,1.57,12.81.22,1.29,2.73,6.7,2.61,7.06-1.67.17-3.21,2.17-4.71.26l-.26-8.11c0,3.27-.68,6.74-.78,9.94-.42-.05-.62-.36-1.05-.52-1.57-.61-1.34-.4-2.61-1.57.47.11,2.04-1.19,2.09-1.31.34-.79-.47-14.95,0-17.26l3.14-1.31Z"/>
          <path class="cls-11" d="M213.15,233.72c-3.49,3.41-6.55,7.48-10.46,10.46-.68-2.78-1.16-24.08-.52-26.41.15-.56,1.19-.61,1.57-1.31,0,.08,1.05,1.04,1.05,1.31.02,7.24-1.1,14.67-.52,21.97l8.89-6.01Z"/>
          <path class="cls-17" d="M196.41,155.79c-1.08-3.47.59-14.87,0-19.61-.19-1.53-2.41-3.99-1.05-5.49.4.79,3.03,3.95,3.14,4.45,1.25,5.83-1.18,16.12,0,22.49-.75.83-2-1.54-2.09-1.83Z"/>
          <path class="cls-17" d="M195.89,127.55l1.05-21.97c.53,1.1,1.56,2.25,2.09,3.4v23.53c-1.27-1.31-2-3.33-3.14-4.97Z"/>
          <path class="cls-17" d="M199.03,83.1c-.22,6.79.34,13.83,0,20.66l-3.14-2.88,2.09-18.3c.43.17.63.47,1.05.52Z"/>
          <path class="cls-13" d="M203.21,128.6c-.75.89-.2,2.06-1.57,1.05.21-6.92.2-14.03-.52-20.92.07-.32,2.76-4.62,3.14-5.23l-1.05,25.1Z"/>
          <g>
            <path class="cls-15" d="M200.6,61.13l-3.14,1.31c-.47,2.31.34,16.47,0,17.26-.05.11-1.62,1.42-2.09,1.31-.12-.03-1.14-1.7-1.31-2.09-1.18,1.95,1.02,1.83,1.31,2.09,1.28,1.17,1.04.96,2.61,1.57l-2.09,18.3-8.89-8.63c3.32,4.33,7.55,8.35,9.94,13.34l-1.05,21.97c-5.32-7.67-11.49-14.9-17.26-22.23,4.92,8.89,12.16,16.25,16.74,25.36-1.36,1.5.86,3.96,1.05,5.49.59,4.75-1.08,16.15,0,19.61l-13.6-13.34,15.69,20.4c.15.09,1.54-.96,1.57-1.05,1.36-4.54-.69-19.47-.52-25.1.07-2.34,1.49-6.59,1.57-8.37.25-5.68-1.06-14.58,0-19.61.72,6.89.73,14,.52,20.92-.07,2.36-1.68,6.62,0,7.58,2.32-9.37,10.09-17.09,15.69-24.84l-13.07,21.7c-1.97,6.52.51,13.55-1.05,20.4l18.83-19.09c-5.33,6.54-13.22,13.52-17.78,20.13-.94,1.36-4.33,5.94-2.88,7.06,7.49-11.4,17.66-20.69,25.36-31.9-1.2,9.55-21.48,25.1-23.01,32.16-.98,4.51.73,12.35,0,17.26l32.42-31.64c-3.84,4.93-7.84,9.74-12.03,14.38-7.26,8.05-17.88,15.13-21.97,25.1l25.1-26.67,9.41-11.77c-.77,3.03-3.37,7.2-5.23,9.68-4.14,5.51-26.81,27.69-27.72,31.38-1.26,5.11,1.27,13.85.52,19.35l42.36-42.62c-4.65,6.05-9.5,11.89-14.64,17.52-3.88,4.25-28.29,27.17-28.76,29.81-.28,1.58.52,1.74.52,1.83-.38.7-1.42.74-1.57,1.31-.63,2.33-.16,23.63.52,26.41.18.73.5,2.09,1.05,2.61-.62.94-1.4.28-1.57.78-.28.83.07,3.71,0,4.97-.4,7.54,1.19,15.61.52,23.27,2.65-1.86,4.95-4.33,7.32-6.54l1.05,1.05c-2.85,2.98-5.63,6.06-8.37,9.15l.52,25.36c-.52,1.24-.36,1.48-.52,2.61-.24,1.7.09,3.93,0,5.75-.33,6.79.36,13.62.26,20.4,1.79-3.65,5.03-3.11,8.37-4.71,29.29-14.04,56.13-39.18,66.68-70.6,1.59-.36.7,1.78.52,2.35-1.74,5.7-5.03,10.83-6.8,16.47-13.52,25.81-37.37,49.72-66.16,57.01-1.69,1.04-.24,2.11-.26,2.61-.3,5.72,1.38,12.59,1.05,17.78-.26,4.07-3.03,4.31-6.8,4.18s-5.42-.33-5.75-4.71c-.39-5.18,1.21-12.04.52-17.78-.05-.39,1.12-1.13.26-2.09-23.46-7.95-44.7-23.88-58.84-44.19-5.92-8.51-9.51-18.07-14.64-26.93l-1.05-6.28c6.23,16.6,15.86,31.42,28.24,43.93,7.61,7.69,16.04,14.81,25.36,20.4,2.27,1.36,19.77,10.65,20.92,10.46.98-.16,1.57-2.77,1.31-3.4-.19-.45-6.97-4.09-8.37-4.97l1.05-1.05c.68.37,7.02,3.96,7.32,3.4.17-6.2.56-12.39,1.05-18.57.04-.51-.04-1.05,0-1.57.48-6.82,1.12-14.76,1.05-22.49-.04-4.97.6-9.89.52-14.91,0-.17-1.56-.54-1.57-1.05-.09-6.53.07-13.1,0-19.61-.02-1.5-.51-2.66-.52-3.66-.12-8.76.97-17.93,1.05-26.67.01-1.42-.53-3.03-.52-3.66.02-4.14,1.07-8.57.52-12.81-.67-1.25-6.12,3.74-6.54,4.45-7.88-7.74-15.57-15.62-23.27-23.53,5.86-1.9,10.45-2.03,15.17-6.54,0-.42-4.49-5.63-5.23-6.54.58-1.26.73-1.23,1.83-.52,4.05,2.6,16.43,20.35,17.78,20.4,1.16.04.93-2.35.78-2.88-.47-1.65-20.46-21.37-23.53-24.84l4.97,3.66c.93-1.93,7.88-10.65,8.11-11.77.53-2.63-13.76-16.63-13.6-21.7,1.28,1.78,2.79,3.44,3.66,5.49l1.83,1.83c1.41-.75-10.23-13.87-10.2-16.47-2.58.21,2.28,4.51,2.09,5.49l-14.38,11.51c-.95.92.76,1.49.78,1.57.75,2.22,1.9,3.36,3.14,5.23-1.54-.97-3.2,2.04-3.66,2.88-2.52,4.54-3.34,10.48-5.75,15.17-.43.24-2.74-2.42-3.14-2.88-.21-.24.52-1.76-.78-1.57-.96.9.75,1.49.78,1.57,2.6,6.01,10.24,15.01,14.64,20.13,10.5,12.22,23.54,22.18,32.95,35.3-.83-.05-1.23.51-2.35.52-.81.01-.4-2.61-2.88.78-3.09,4.23-2.33,10.39-4.45,14.91l-9.15-8.37c-14.15-13.94-29.16-27.13-39.49-44.45l19.09,27.2c-.93-.52-1.18-1.55-2.09-.26,8.3,10.56,18,20.2,27.2,30.07-2.26,5.69-10.21,6.4-13.34,10.98-4.76-5.03-10.57-9.24-15.43-14.12-6.95-6.97-12.54-16.43-18.83-22.49-.1-.1-.37-.89-.78-1.05-.97,1.25.76.99.78,1.05,3.52,7.65,12.58,18.65,18.3,25.1-2.58.2.31,2.72,1.05,3.66-17.12,3.99-19.25-9.73-21.44-22.75-.33-1.96.12-7.97,0-8.37-.22-.73-5.33-2.39-6.54-3.4-.33-.27-5.36-6.13-5.49-6.54-.53-1.6,2.03-3.98.52-5.49,1.69-6.2,3.78-12.2,5.75-18.3,17.61-38.68,37.64-66.85,62.24-100.94,3.29-4.56,6.53-10.51,9.94-14.64.41.92,1.91,1.6,2.09,2.09Z"/>
            <g>
              <path class="cls-2" d="M204.78,81c-.68,2.04-3.92,1.85-4.18,2.35-1.35,2.55,1.02,17.94,0,21.97,3.53-3.57,6.41-7.94,9.94-11.51.13-.13,2.44-3.13,2.61-1.57-3.15,3.61-6.33,7.18-8.89,11.24-.38.61-3.07,4.91-3.14,5.23-1.06,5.03.25,13.93,0,19.61-.08,1.78-1.5,6.03-1.57,8.37-.17,5.63,1.88,20.56.52,25.1-.03.09-1.42,1.13-1.57,1.05l-15.69-20.4,13.6,13.34c.09.29,1.34,2.66,2.09,1.83-1.18-6.37,1.25-16.65,0-22.49-.11-.5-2.74-3.66-3.14-4.45-4.58-9.12-11.82-16.48-16.74-25.36,5.77,7.33,11.94,14.56,17.26,22.23,1.14,1.64,1.87,3.66,3.14,4.97v-23.53c-.53-1.15-1.57-2.3-2.09-3.4-2.39-4.99-6.62-9-9.94-13.34l8.89,8.63,3.14,2.88c.34-6.83-.22-13.87,0-20.66.1-3.2.79-6.67.78-9.94l.26,8.11c1.49,1.91,3.04-.1,4.71-.26Z"/>
              <path class="cls-2" d="M177.06,223.78c6.57,6.47,12.88,13.3,19.35,19.87.01,1,.51,2.16.52,3.66-2.7-2.69-5.23-5.58-7.84-8.37-5.1-5.44-27.94-29.93-32.42-32.42l-19.09-27.2c10.33,17.32,25.33,30.52,39.49,44.45Z"/>
              <path class="cls-10" d="M174.45,160.5c3.08,3.47,23.06,23.2,23.53,24.84.15.52.37,2.91-.78,2.88-1.35-.04-13.73-17.8-17.78-20.4-1.1-.7-1.25-.74-1.83.52-.97-1.2-6.51-4.91-2.61-5.49-5.08-5.5-9.98-11.27-14.12-17.52-1.24-1.87-2.38-3.01-3.14-5.23,5.48,6.92,10.86,13.77,16.74,20.4Z"/>
              <path class="cls-10" d="M236.68,149.52l-9.41,11.77-25.1,26.67c4.08-9.97,14.7-17.06,21.97-25.1,4.19-4.64,8.19-9.45,12.03-14.38,2.24-2.87,4-6.24,6.8-8.63l-6.28,9.68Z"/>
              <path class="cls-10" d="M226.74,130.69c-7.71,11.21-17.87,20.5-25.36,31.9-1.46-1.12,1.94-5.7,2.88-7.06,4.56-6.61,12.45-13.59,17.78-20.13,3.27-4.01,6.18-8.32,9.15-12.55-.48,2.76-2.88,5.56-4.45,7.84Z"/>
              <path class="cls-10" d="M173.92,130.69c-.87-1.21-1.87-2.36-2.61-3.66.19-.98-4.68-5.28-2.09-5.49-.03,2.6,11.61,15.72,10.2,16.47l-1.83-1.83c-.88-2.06-2.38-3.71-3.66-5.49Z"/>
              <path class="cls-11" d="M197.2,166.77c1.82.63,1.51,7.83.52,7.84l-.52-7.84Z"/>
              <path class="cls-11" d="M195.37,81c-.29-.26-2.49-.14-1.31-2.09.17.39,1.19,2.06,1.31,2.09Z"/>
              <path class="cls-2" d="M148.3,160.5c-.03-.08-1.75-.67-.78-1.57,1.31-.2.58,1.33.78,1.57Z"/>
              <path class="cls-2" d="M134.18,210.7c-.03-.06-1.75.2-.78-1.05.42.15.69.95.78,1.05Z"/>
            </g>
          </g>
          <g>
            <path class="cls-5" d="M269.63,167.82c.6,1.59,1.1,3.06,1.57,4.71.96,3.4.54,7.26,1.05,9.15,2.73,10.31,4.95,18.78,6.8,28.5-.85,2.87-.65,6.68-.52,9.68.02.5,1.66,1.88,1.57,2.61-.05.42-2.84,2.45-3.14,3.14-1.59,3.71-2.55,7.06-5.23,11.24-.88,1.37-2.6,3.21-3.66,4.71-5.96,3.95-10.14,11.51-15.17,17-6.12,6.68-13.12,13.1-19.87,19.09-8.68,7.68-18.23,14.34-26.93,21.97-1.45.01-.82-16.43-.26-18.04,1.56-4.51,34.6-34.7,40.79-41.84s10.39-13.08,15.17-21.18c2.03-3.45,4.87-6.67,6.01-10.46-12.97,20.15-30.94,35.74-48.38,51.78l-13.86,11.51c-1.1-.15-1.03-17.23-.78-18.83.87-5.74,31.41-34.06,37.65-41.58,1.94-2.33,6.33-6.89,5.75-9.68,4.73-5.72,10.32-13.18,13.34-19.87-12.86,20.36-31.39,35.67-48.38,52.3l-8.89,6.01c-.58-7.29.54-14.73.52-21.97,0-.27-1.05-1.22-1.05-1.31,5.64-10.24,26.76-27.29,35.56-37.92,4.62-5.57,10.44-12.39,12.81-19.09-1.55,2.82-3.54,5.31-5.49,7.84l-42.36,42.62c.75-5.5-1.79-14.24-.52-19.35.91-3.69,23.58-25.87,27.72-31.38,1.86-2.48,4.46-6.65,5.23-9.68l6.28-9.68c-2.8,2.39-4.56,5.76-6.8,8.63l-32.42,31.64c.73-4.9-.98-12.75,0-17.26,1.53-7.06,21.81-22.62,23.01-32.16,1.57-2.28,3.96-5.08,4.45-7.84-2.97,4.23-5.88,8.54-9.15,12.55l-18.83,19.09c1.55-6.84-.93-13.87,1.05-20.4l13.07-21.7,4.18-6.01c-.51-1.37-16.98,20.66-18.3,22.23l1.05-25.1c2.56-4.07,5.75-7.64,8.89-11.24-.17-1.56-2.49,1.44-2.61,1.57-3.53,3.57-6.41,7.94-9.94,11.51,1.02-4.03-1.35-19.42,0-21.97.27-.51,3.5-.32,4.18-2.35.12-.36-2.4-5.77-2.61-7.06-.61-3.66-.29-9.42-1.57-12.81-.19-.49-1.68-1.18-2.09-2.09.51-.62.52-1.63,1.31-2.09,19.25,30.61,43.2,59.59,60.4,91.78,2.9,5.42,7.33,13.54,9.41,19.09Z"/>
            <g>
              <path class="cls-13" d="M233.02,277.65c2.18-1.94,1.44.03,1.57,0-4.67,6.85-28.86,21.13-31.38,27.2l-.52-25.36c2.73-3.1,5.52-6.17,8.37-9.15,16.46-17.2,36.8-31.66,50.73-51.78-4.78,8.1-8.87,13.92-15.17,21.18s-39.23,37.33-40.79,41.84c-.56,1.62-1.19,18.06.26,18.04,8.7-7.63,18.26-14.28,26.93-21.97Z"/>
              <path class="cls-2" d="M248.19,201.29c-12.03,14.55-35.14,31.44-44.45,45.5-.55-.53-.87-1.89-1.05-2.61,3.91-2.98,6.97-7.05,10.46-10.46,16.98-16.63,35.52-31.94,48.38-52.3-3.02,6.7-8.6,14.15-13.34,19.87Z"/>
              <path class="cls-2" d="M261.78,218.55c-13.93,20.11-34.26,34.57-50.73,51.78l-1.05-1.05c3.19-2.98,6.2-6.45,9.41-9.41,17.44-16.03,35.41-31.62,48.38-51.78-1.14,3.79-3.98,7.01-6.01,10.46Z"/>
              <path class="cls-10" d="M203.73,216.46c0-.1-.81-.25-.52-1.83.48-2.64,24.88-25.56,28.76-29.81,5.14-5.63,10-11.47,14.64-17.52,1.95-2.54,3.94-5.02,5.49-7.84-2.37,6.7-8.2,13.52-12.81,19.09-8.81,10.63-29.92,27.68-35.56,37.92Z"/>
              <path class="cls-17" d="M204.78,252.54c-.24,1.6-.32,18.68.78,18.83l13.86-11.51c-3.22,2.96-6.22,6.43-9.41,9.41-2.37,2.21-4.67,4.68-7.32,6.54.67-7.66-.92-15.73-.52-23.27h2.61Z"/>
              <path class="cls-10" d="M217.33,112.38c-5.6,7.75-13.37,15.47-15.69,24.84-1.68-.96-.07-5.22,0-7.58,1.37,1.01.82-.16,1.57-1.05,1.32-1.57,17.8-23.6,18.3-22.23l-4.18,6.01Z"/>
              <path class="cls-11" d="M268.06,241.56c-4.12,5.82-28.27,34.83-33.47,36.09-.13.03.61-1.94-1.57,0,6.76-5.98,13.75-12.41,19.87-19.09,5.03-5.48,9.2-13.05,15.17-17Z"/>
              <path class="cls-2" d="M206.61,78.91c1.13-.48.52,1.61-.52,1.57-.3-.29.44-1.53.52-1.57Z"/>
            </g>
          </g>
          <path class="cls-17" d="M183.34,269.8c2.06,2.15,11.94,11.54,12.55,13.34.4,1.17.88,15.48.52,16.21-.12.25-3.14-.05-3.66.78-14.01-13.28-29.58-23.03-43.41-37.65l27.46,23.01c1.87-5.34,7-9.8,6.54-15.69Z"/>
          <g>
            <path class="cls-6" d="M278,258.3c-10.55,31.42-37.39,56.56-66.68,70.6-3.33,1.6-6.58,1.06-8.37,4.71.1-6.77-.59-13.61-.26-20.4l6.01-6.8c17.67-16.19,38.23-31.58,52.56-50.99,1.4-1.89,4.82-6.51,4.18-8.63,2.29-3.16,4.74-6.31,6.28-9.94,2.68-4.19,3.64-7.53,5.23-11.24.3-.69,3.09-2.71,3.14-3.14.09-.74-1.55-2.12-1.57-2.61-.13-3-.33-6.81.52-9.68.3,1.57,2.26,5.45,2.61,7.58.76,4.54.43,9.51.52,14.12l1.05-3.14c-.34,3.62.03,8.55-.52,12.03-.02.14-1.3-.46-1.57,1.05-.98,5.47-.99,10.09-3.14,16.47Z"/>
            <path class="cls-2" d="M230.41,309.55c11.86-8.83,19.79-17.03,28.24-29.29,7.16-10.38,11.84-20.77,16.74-32.16-6.91,25.5-25.22,50.29-46.81,65.63-2.51,1.78-22.18,13.66-23.53,13.6-.73-.04-1.45-.55-1.31-1.31,9.42-4.81,18.22-10.18,26.67-16.47Z"/>
            <path class="cls-11" d="M258.65,280.26c-8.45,12.25-16.38,20.46-28.24,29.29l28.24-29.29Z"/>
          </g>
        </g>
      </g>
    </g>
  </g>
</svg>