<?xml version="1.0" encoding="UTF-8"?>
<svg id="Layer_1" data-name="Layer 1" xmlns="http://www.w3.org/2000/svg" viewBox="0 0 280.03 396.03">
  <defs>
    <style>
      .cls-1 {
        stroke: #2b3a4b;
        stroke-width: 13.42px;
      }

      .cls-1, .cls-2, .cls-3, .cls-4 {
        stroke-linecap: round;
        stroke-linejoin: round;
      }

      .cls-1, .cls-3 {
        fill: none;
      }

      .cls-5 {
        fill: #f0bb5f;
      }

      .cls-2 {
        fill: #76b158;
      }

      .cls-2, .cls-3, .cls-4 {
        stroke: #2d3b4d;
        stroke-width: 15.86px;
      }

      .cls-6 {
        fill: #da655a;
      }

      .cls-7 {
        fill: #2d3b4d;
        font-family: ArialRoundedMTBold, 'Arial Rounded MT Bold';
        font-size: 114.43px;
      }

      .cls-4 {
        fill: #abd7f4;
      }
    </style>
  </defs>
  <g id="Generative_Object" data-name="Generative Object">
    <g>
      <g>
        <path class="cls-6" d="M226.05,297.4c-.31.03-.63-.03-.95,0,.42,1.73-.13,3.29-.43,4.95-4.78,26.64-20.76,58.36-27.57,85.22l-114.53.55c-1.37-.03-1.76-.91-2.48-1.83-2.77-3.55-23.84-74.04-26.47-83.94-.46-1.72-.21-3.49-1.38-4.94,44.27,3.85,128.45,3.68,172.85,0,.31-.03.64.03.95,0Z"/>
        <path class="cls-4" d="M226.05,297.4c-.31.03-.63-.03-.95,0-44.4,3.68-128.58,3.85-172.85,0-1.79-.16-4.16.33-5.7,0-2.9-.63-5.19-.46-7.56-2.83-4.46-4.47-6.37-37,6.61-35.91l188.98.38c9.68.04,8.85,27.66,6.99,31.75-3.71,8.19-8.72,5.99-15.53,6.61Z"/>
      </g>
      <g>
        <path class="cls-5" d="M129.76,8.83c86.21-13.08,99.05,120.32,10.01,125.55l-1.54-1.16c-76.01-1.72-83.79-112.95-8.46-124.38Z"/>
        <path class="cls-2" d="M92.85,192.9v-2.09c.33-26.15-7.93-56.84-41.57-49.7-14.96,3.18-31.17,15.27-43.34,24.25,12.25,48.86,46.79,60.8,84.92,27.54Z"/>
        <path class="cls-2" d="M269.91,164.33c-15.56-9.72-38.51-28.17-58-23.22-15.09,3.83-22.03,14.38-25.51,28.72-.82,3.39-2.08,18.65-1.02,21.22l.47.76c.96,1.45,12.65,10.42,14.73,11.66,37.69,22.49,60.77-2.32,69.34-39.14Z"/>
      </g>
    </g>
    <g>
      <line class="cls-1" x1="256.69" y1="68.75" x2="256.47" y2="104.64"/>
      <line class="cls-1" x1="238.38" y1="86.26" x2="273.32" y2="87.63"/>
      <path class="cls-3" d="M53.63,302.34c2.63,9.9,23.7,80.39,26.47,83.94.72.92,1.1,1.8,2.48,1.83l114.53-.55c6.81-26.85,22.79-58.58,27.57-85.22"/>
      <path class="cls-3" d="M52.59,172.71c31.38,10.84,57.55,31.41,86.49,47.02,29-15.68,54.8-36.93,86.64-46.94"/>
      <path class="cls-3" d="M138.23,133.21c-76.01-1.72-83.79-112.95-8.46-124.38,86.21-13.08,99.05,120.32,10.01,125.55l-.62,119.55"/>
    </g>
  </g>
  <text class="cls-7" transform="translate(106.17 108.79)"><tspan x="0" y="0">£</tspan></text>
</svg>